<svg width="218" height="67" viewBox="0 0 218 67" fill="none" xmlns="http://www.w3.org/2000/svg">
<path d="M106.26 8.17547H109.445V26H106.26V18.2634H97.1325V26H93.9215V8.17547H97.1325V15.634H106.26V8.17547ZM118.31 13.3332C120.046 13.3332 121.336 13.7546 122.178 14.5974C123.021 15.4401 123.443 16.738 123.443 18.4909V26H120.434V24.1038C120.147 24.7611 119.692 25.2752 119.069 25.646C118.462 26.0169 117.754 26.2023 116.945 26.2023C116.119 26.2023 115.369 26.0337 114.695 25.6966C114.02 25.3595 113.49 24.896 113.102 24.306C112.714 23.7161 112.52 23.0587 112.52 22.334C112.52 21.4238 112.748 20.7074 113.203 20.1849C113.675 19.6624 114.433 19.2831 115.478 19.0472C116.523 18.8112 117.965 18.6932 119.802 18.6932H120.434V18.1117C120.434 17.2689 120.249 16.6621 119.878 16.2913C119.524 15.9205 118.925 15.7351 118.083 15.7351C117.425 15.7351 116.734 15.8531 116.009 16.0891C115.301 16.3082 114.602 16.62 113.911 17.0245L113.026 14.8502C113.717 14.4119 114.551 14.0496 115.529 13.763C116.507 13.4765 117.434 13.3332 118.31 13.3332ZM117.577 23.9268C118.42 23.9268 119.102 23.6487 119.625 23.0925C120.164 22.5194 120.434 21.7862 120.434 20.8928V20.3619H119.979C118.85 20.3619 117.973 20.4125 117.349 20.5136C116.726 20.6147 116.279 20.7917 116.009 21.0445C115.74 21.2974 115.605 21.6429 115.605 22.0811C115.605 22.6205 115.79 23.0672 116.161 23.4211C116.532 23.7582 117.004 23.9268 117.577 23.9268ZM141.344 13.3332C142.743 13.3332 143.788 13.7546 144.479 14.5974C145.17 15.4233 145.516 16.6958 145.516 18.4151V26H142.355V18.5415C142.355 17.5976 142.195 16.915 141.875 16.4936C141.555 16.0553 141.041 15.8362 140.333 15.8362C139.49 15.8362 138.833 16.1228 138.361 16.6958C137.889 17.2689 137.653 18.0696 137.653 19.0977V26H134.492V18.5415C134.492 17.5976 134.332 16.915 134.012 16.4936C133.708 16.0553 133.194 15.8362 132.47 15.8362C131.644 15.8362 130.995 16.1228 130.523 16.6958C130.051 17.2689 129.815 18.0696 129.815 19.0977V26H126.655V13.6366H129.739V15.3811C130.11 14.7069 130.624 14.2013 131.281 13.8641C131.939 13.5102 132.689 13.3332 133.532 13.3332C135.402 13.3332 136.641 14.1086 137.248 15.6592C137.636 14.9345 138.192 14.3698 138.917 13.9653C139.642 13.5439 140.451 13.3332 141.344 13.3332ZM148.728 26V13.6366H151.888V26H148.728ZM148.551 7.89736H152.04V11.0072H148.551V7.89736ZM162.328 13.3332C163.811 13.3332 164.915 13.7546 165.64 14.5974C166.365 15.4401 166.727 16.7127 166.727 18.4151V26H163.567V18.5921C163.567 17.6313 163.381 16.9318 163.01 16.4936C162.656 16.0553 162.092 15.8362 161.316 15.8362C160.406 15.8362 159.673 16.1228 159.117 16.6958C158.577 17.2689 158.308 18.0358 158.308 18.9966V26H155.147V13.6366H158.232V15.4823C158.653 14.7912 159.218 14.2603 159.926 13.8894C160.634 13.5186 161.434 13.3332 162.328 13.3332ZM176.258 23.8257C176.628 23.8257 177.016 23.8004 177.421 23.7498L177.269 26.1011C176.763 26.1517 176.3 26.177 175.878 26.177C174.142 26.177 172.861 25.7809 172.035 24.9887C171.209 24.1796 170.797 22.9829 170.797 21.3985V16.0132H168.42V13.6366H170.797V9.94528H173.957V13.6366H177.218V16.0132H173.957V21.3479C173.957 22.9997 174.724 23.8257 176.258 23.8257ZM184.908 26.2023C183.644 26.2023 182.531 25.941 181.571 25.4185C180.627 24.896 179.894 24.1459 179.371 23.1683C178.848 22.1907 178.587 21.053 178.587 19.7551C178.587 18.4572 178.848 17.3279 179.371 16.3672C179.894 15.3896 180.627 14.6395 181.571 14.117C182.531 13.5945 183.644 13.3332 184.908 13.3332C186.172 13.3332 187.276 13.5945 188.22 14.117C189.181 14.6395 189.914 15.3896 190.42 16.3672C190.942 17.3279 191.203 18.4572 191.203 19.7551C191.203 21.053 190.942 22.1907 190.42 23.1683C189.914 24.1459 189.181 24.896 188.22 25.4185C187.276 25.941 186.172 26.2023 184.908 26.2023ZM184.883 23.7498C185.911 23.7498 186.695 23.4127 187.234 22.7385C187.773 22.0643 188.043 21.0698 188.043 19.7551C188.043 18.4572 187.773 17.4712 187.234 16.797C186.695 16.1059 185.919 15.7604 184.908 15.7604C183.897 15.7604 183.113 16.1059 182.557 16.797C182.017 17.4712 181.748 18.4572 181.748 19.7551C181.748 21.0698 182.017 22.0643 182.557 22.7385C183.096 23.4127 183.871 23.7498 184.883 23.7498ZM108.788 49.3672V57.9128C107.979 58.3174 106.993 58.6376 105.83 58.8736C104.684 59.1096 103.512 59.2275 102.315 59.2275C100.478 59.2275 98.8854 58.8652 97.537 58.1404C96.1886 57.3987 95.152 56.3453 94.4272 54.98C93.7192 53.5979 93.3653 51.9629 93.3653 50.0751C93.3653 48.2042 93.7192 46.586 94.4272 45.2208C95.152 43.8386 96.1717 42.7852 97.4864 42.0604C98.818 41.3187 100.377 40.9479 102.164 40.9479C103.411 40.9479 104.583 41.1333 105.678 41.5041C106.774 41.8581 107.684 42.3722 108.409 43.0464L107.322 45.3977C106.496 44.7572 105.678 44.3021 104.869 44.0325C104.077 43.7459 103.2 43.6026 102.24 43.6026C100.402 43.6026 99.0118 44.1504 98.0679 45.246C97.1409 46.3248 96.6774 47.9345 96.6774 50.0751C96.6774 54.4575 98.5989 56.6487 102.442 56.6487C103.588 56.6487 104.734 56.4886 105.88 56.1683V51.6932H102.037V49.3672H108.788ZM117.495 46.3332C119.231 46.3332 120.521 46.7546 121.364 47.5974C122.206 48.4401 122.628 49.738 122.628 51.4909V59H119.619V57.1038C119.333 57.7611 118.877 58.2752 118.254 58.646C117.647 59.0169 116.939 59.2023 116.13 59.2023C115.304 59.2023 114.554 59.0337 113.88 58.6966C113.206 58.3595 112.675 57.896 112.287 57.306C111.899 56.7161 111.706 56.0587 111.706 55.334C111.706 54.4238 111.933 53.7074 112.388 53.1849C112.86 52.6624 113.619 52.2831 114.664 52.0472C115.709 51.8112 117.15 51.6932 118.987 51.6932H119.619V51.1117C119.619 50.2689 119.434 49.6621 119.063 49.2913C118.709 48.9205 118.111 48.7351 117.268 48.7351C116.61 48.7351 115.919 48.8531 115.195 49.0891C114.487 49.3082 113.787 49.62 113.096 50.0245L112.211 47.8502C112.902 47.4119 113.737 47.0496 114.714 46.763C115.692 46.4765 116.619 46.3332 117.495 46.3332ZM116.762 56.9268C117.605 56.9268 118.288 56.6487 118.81 56.0925C119.349 55.5194 119.619 54.7862 119.619 53.8928V53.3619H119.164C118.035 53.3619 117.158 53.4125 116.535 53.5136C115.911 53.6147 115.464 53.7917 115.195 54.0445C114.925 54.2974 114.79 54.6429 114.79 55.0811C114.79 55.6205 114.975 56.0672 115.346 56.4211C115.717 56.7582 116.189 56.9268 116.762 56.9268ZM133.981 48.9626L132.135 49.1396C130.045 49.3587 129 50.4206 129 52.3253V59H125.84V46.6366H128.848V48.8109C129.489 47.3277 130.812 46.5186 132.818 46.3838L133.779 46.3079L133.981 48.9626ZM147.205 41.1755V59H144.07V57.0026C143.699 57.6937 143.16 58.2331 142.452 58.6208C141.761 59.0084 140.969 59.2023 140.075 59.2023C139.013 59.2023 138.061 58.9326 137.218 58.3932C136.392 57.8538 135.743 57.0953 135.271 56.1177C134.816 55.1233 134.589 53.9855 134.589 52.7045C134.589 51.4235 134.816 50.3026 135.271 49.3419C135.743 48.3811 136.392 47.6395 137.218 47.117C138.044 46.5945 138.997 46.3332 140.075 46.3332C140.969 46.3332 141.761 46.5186 142.452 46.8894C143.143 47.2603 143.674 47.7828 144.045 48.457V41.1755H147.205ZM140.91 56.7498C141.921 56.7498 142.696 56.4043 143.236 55.7132C143.792 55.0221 144.07 54.0361 144.07 52.7551C144.07 51.4741 143.792 50.4965 143.236 49.8223C142.696 49.1312 141.929 48.7857 140.935 48.7857C139.924 48.7857 139.14 49.1228 138.584 49.797C138.027 50.4712 137.749 51.4404 137.749 52.7045C137.749 53.9855 138.027 54.98 138.584 55.6879C139.14 56.3958 139.915 56.7498 140.91 56.7498ZM161.303 53.3872H152.883C152.984 54.5333 153.33 55.3845 153.92 55.9408C154.51 56.497 155.353 56.7751 156.448 56.7751C157.813 56.7751 159.061 56.3369 160.19 55.4604L161.1 57.6347C160.527 58.1067 159.802 58.4859 158.926 58.7725C158.066 59.059 157.198 59.2023 156.322 59.2023C154.299 59.2023 152.698 58.6292 151.518 57.483C150.355 56.3369 149.773 54.7693 149.773 52.7804C149.773 51.5162 150.026 50.3953 150.532 49.4177C151.038 48.4401 151.746 47.6816 152.656 47.1423C153.583 46.6029 154.628 46.3332 155.791 46.3332C157.493 46.3332 158.833 46.881 159.811 47.9766C160.805 49.0722 161.303 50.5808 161.303 52.5023V53.3872ZM155.867 48.5581C155.024 48.5581 154.341 48.8278 153.819 49.3672C153.313 49.9065 153.001 50.6819 152.883 51.6932H158.597C158.564 50.665 158.311 49.8897 157.839 49.3672C157.367 48.8278 156.709 48.5581 155.867 48.5581ZM171.068 46.3332C172.551 46.3332 173.655 46.7546 174.38 47.5974C175.105 48.4401 175.467 49.7127 175.467 51.4151V59H172.307V51.5921C172.307 50.6313 172.122 49.9318 171.751 49.4936C171.397 49.0553 170.832 48.8362 170.057 48.8362C169.147 48.8362 168.413 49.1228 167.857 49.6958C167.318 50.2689 167.048 51.0358 167.048 51.9966V59H163.888V46.6366H166.972V48.4823C167.394 47.7912 167.958 47.2603 168.666 46.8894C169.374 46.5186 170.175 46.3332 171.068 46.3332ZM178.677 59V46.6366H181.838V59H178.677ZM178.5 40.8974H181.989V44.0072H178.5V40.8974ZM192.277 46.3332C193.76 46.3332 194.864 46.7546 195.589 47.5974C196.314 48.4401 196.676 49.7127 196.676 51.4151V59H193.516V51.5921C193.516 50.6313 193.331 49.9318 192.96 49.4936C192.606 49.0553 192.041 48.8362 191.266 48.8362C190.356 48.8362 189.622 49.1228 189.066 49.6958C188.527 50.2689 188.257 51.0358 188.257 51.9966V59H185.097V46.6366H188.181V48.4823C188.603 47.7912 189.167 47.2603 189.875 46.8894C190.583 46.5186 191.384 46.3332 192.277 46.3332ZM211.921 46.6366V57.8623C211.921 59.8006 211.382 61.267 210.303 62.2615C209.241 63.256 207.665 63.7532 205.575 63.7532C204.496 63.7532 203.46 63.6099 202.465 63.3234C201.471 63.0537 200.603 62.666 199.861 62.1604L200.746 59.9355C202.28 60.8625 203.864 61.326 205.499 61.326C207.69 61.326 208.786 60.2473 208.786 58.0898V56.4717C208.415 57.1628 207.876 57.7021 207.168 58.0898C206.46 58.4606 205.651 58.646 204.741 58.646C203.662 58.646 202.701 58.3932 201.858 57.8875C201.033 57.365 200.384 56.6403 199.912 55.7132C199.44 54.7862 199.204 53.7158 199.204 52.5023C199.204 51.2887 199.431 50.2184 199.886 49.2913C200.358 48.3474 201.016 47.6226 201.858 47.117C202.701 46.5945 203.662 46.3332 204.741 46.3332C205.651 46.3332 206.46 46.527 207.168 46.9147C207.876 47.2855 208.415 47.8165 208.786 48.5075V46.6366H211.921ZM205.575 56.1936C206.586 56.1936 207.37 55.8649 207.926 55.2075C208.499 54.5502 208.786 53.6484 208.786 52.5023C208.786 51.3392 208.499 50.4291 207.926 49.7717C207.37 49.1143 206.586 48.7857 205.575 48.7857C204.581 48.7857 203.797 49.1143 203.224 49.7717C202.651 50.4291 202.364 51.3392 202.364 52.5023C202.364 53.6316 202.651 54.5333 203.224 55.2075C203.797 55.8649 204.581 56.1936 205.575 56.1936Z" fill="#40434A"/>
<circle cx="33.5" cy="33.5" r="33.5" fill="#FECC1A"/>
<path d="M37.6 24.375H41.425L40.025 42H36.2L36.8 34.6H28.7L28.1 42H24.275L25.675 24.375H29.5L28.925 31.5H37.025L37.6 24.375Z" fill="#27292E"/>
</svg>
