<svg width="170" height="53" viewBox="0 0 170 53" fill="none" xmlns="http://www.w3.org/2000/svg">
<path d="M83.8698 6.9H86.3898V21H83.8698V14.88H76.6498V21H74.1098V6.9H76.6498V12.8H83.8698V6.9ZM93.4023 10.98C94.7757 10.98 95.7957 11.3133 96.4623 11.98C97.129 12.6467 97.4623 13.6733 97.4623 15.06V21H95.0823V19.5C94.8557 20.02 94.4957 20.4267 94.0023 20.72C93.5223 21.0133 92.9623 21.16 92.3223 21.16C91.669 21.16 91.0757 21.0267 90.5423 20.76C90.009 20.4933 89.589 20.1267 89.2823 19.66C88.9757 19.1933 88.8223 18.6733 88.8223 18.1C88.8223 17.38 89.0023 16.8133 89.3623 16.4C89.7357 15.9867 90.3357 15.6867 91.1623 15.5C91.989 15.3133 93.129 15.22 94.5823 15.22H95.0823V14.76C95.0823 14.0933 94.9357 13.6133 94.6423 13.32C94.3623 13.0267 93.889 12.88 93.2223 12.88C92.7023 12.88 92.1557 12.9733 91.5823 13.16C91.0223 13.3333 90.469 13.58 89.9223 13.9L89.2223 12.18C89.769 11.8333 90.429 11.5467 91.2023 11.32C91.9757 11.0933 92.709 10.98 93.4023 10.98ZM92.8223 19.36C93.489 19.36 94.029 19.14 94.4423 18.7C94.869 18.2467 95.0823 17.6667 95.0823 16.96V16.54H94.7223C93.829 16.54 93.1357 16.58 92.6423 16.66C92.149 16.74 91.7957 16.88 91.5823 17.08C91.369 17.28 91.2623 17.5533 91.2623 17.9C91.2623 18.3267 91.409 18.68 91.7023 18.96C91.9957 19.2267 92.369 19.36 92.8223 19.36ZM111.623 10.98C112.73 10.98 113.556 11.3133 114.103 11.98C114.65 12.6333 114.923 13.64 114.923 15V21H112.423V15.1C112.423 14.3533 112.296 13.8133 112.043 13.48C111.79 13.1333 111.383 12.96 110.823 12.96C110.156 12.96 109.636 13.1867 109.263 13.64C108.89 14.0933 108.703 14.7267 108.703 15.54V21H106.203V15.1C106.203 14.3533 106.076 13.8133 105.823 13.48C105.583 13.1333 105.176 12.96 104.603 12.96C103.95 12.96 103.436 13.1867 103.063 13.64C102.69 14.0933 102.503 14.7267 102.503 15.54V21H100.003V11.22H102.443V12.6C102.736 12.0667 103.143 11.6667 103.663 11.4C104.183 11.12 104.776 10.98 105.443 10.98C106.923 10.98 107.903 11.5933 108.383 12.82C108.69 12.2467 109.13 11.8 109.703 11.48C110.276 11.1467 110.916 10.98 111.623 10.98ZM117.464 21V11.22H119.964V21H117.464ZM117.324 6.68H120.084V9.14H117.324V6.68ZM128.222 10.98C129.396 10.98 130.269 11.3133 130.842 11.98C131.416 12.6467 131.702 13.6533 131.702 15V21H129.202V15.14C129.202 14.38 129.056 13.8267 128.762 13.48C128.482 13.1333 128.036 12.96 127.422 12.96C126.702 12.96 126.122 13.1867 125.682 13.64C125.256 14.0933 125.042 14.7 125.042 15.46V21H122.542V11.22H124.982V12.68C125.316 12.1333 125.762 11.7133 126.322 11.42C126.882 11.1267 127.516 10.98 128.222 10.98ZM139.241 19.28C139.535 19.28 139.841 19.26 140.161 19.22L140.041 21.08C139.641 21.12 139.275 21.14 138.941 21.14C137.568 21.14 136.555 20.8267 135.901 20.2C135.248 19.56 134.921 18.6133 134.921 17.36V13.1H133.041V11.22H134.921V8.3H137.421V11.22H140.001V13.1H137.421V17.32C137.421 18.6267 138.028 19.28 139.241 19.28ZM146.084 21.16C145.084 21.16 144.204 20.9533 143.444 20.54C142.698 20.1267 142.118 19.5333 141.704 18.76C141.291 17.9867 141.084 17.0867 141.084 16.06C141.084 15.0333 141.291 14.14 141.704 13.38C142.118 12.6067 142.698 12.0133 143.444 11.6C144.204 11.1867 145.084 10.98 146.084 10.98C147.084 10.98 147.958 11.1867 148.704 11.6C149.464 12.0133 150.044 12.6067 150.444 13.38C150.858 14.14 151.064 15.0333 151.064 16.06C151.064 17.0867 150.858 17.9867 150.444 18.76C150.044 19.5333 149.464 20.1267 148.704 20.54C147.958 20.9533 147.084 21.16 146.084 21.16ZM146.064 19.22C146.878 19.22 147.498 18.9533 147.924 18.42C148.351 17.8867 148.564 17.1 148.564 16.06C148.564 15.0333 148.351 14.2533 147.924 13.72C147.498 13.1733 146.884 12.9 146.084 12.9C145.284 12.9 144.664 13.1733 144.224 13.72C143.798 14.2533 143.584 15.0333 143.584 16.06C143.584 17.1 143.798 17.8867 144.224 18.42C144.651 18.9533 145.264 19.22 146.064 19.22ZM85.8698 39.38V46.14C85.2298 46.46 84.4498 46.7133 83.5298 46.9C82.6232 47.0867 81.6965 47.18 80.7498 47.18C79.2965 47.18 78.0365 46.8933 76.9698 46.32C75.9032 45.7333 75.0832 44.9 74.5098 43.82C73.9498 42.7267 73.6698 41.4333 73.6698 39.94C73.6698 38.46 73.9498 37.18 74.5098 36.1C75.0832 35.0067 75.8898 34.1733 76.9298 33.6C77.9832 33.0133 79.2165 32.72 80.6298 32.72C81.6165 32.72 82.5432 32.8667 83.4098 33.16C84.2765 33.44 84.9965 33.8467 85.5698 34.38L84.7098 36.24C84.0565 35.7333 83.4098 35.3733 82.7698 35.16C82.1432 34.9333 81.4498 34.82 80.6898 34.82C79.2365 34.82 78.1365 35.2533 77.3898 36.12C76.6565 36.9733 76.2898 38.2467 76.2898 39.94C76.2898 43.4067 77.8098 45.14 80.8498 45.14C81.7565 45.14 82.6632 45.0133 83.5698 44.76V41.22H80.5298V39.38H85.8698ZM92.7578 36.98C94.1311 36.98 95.1511 37.3133 95.8178 37.98C96.4845 38.6467 96.8178 39.6733 96.8178 41.06V47H94.4378V45.5C94.2111 46.02 93.8511 46.4267 93.3578 46.72C92.8778 47.0133 92.3178 47.16 91.6778 47.16C91.0245 47.16 90.4311 47.0267 89.8978 46.76C89.3645 46.4933 88.9445 46.1267 88.6378 45.66C88.3311 45.1933 88.1778 44.6733 88.1778 44.1C88.1778 43.38 88.3578 42.8133 88.7178 42.4C89.0911 41.9867 89.6911 41.6867 90.5178 41.5C91.3445 41.3133 92.4845 41.22 93.9378 41.22H94.4378V40.76C94.4378 40.0933 94.2911 39.6133 93.9978 39.32C93.7178 39.0267 93.2445 38.88 92.5778 38.88C92.0578 38.88 91.5111 38.9733 90.9378 39.16C90.3778 39.3333 89.8245 39.58 89.2778 39.9L88.5778 38.18C89.1245 37.8333 89.7845 37.5467 90.5578 37.32C91.3311 37.0933 92.0645 36.98 92.7578 36.98ZM92.1778 45.36C92.8445 45.36 93.3845 45.14 93.7978 44.7C94.2245 44.2467 94.4378 43.6667 94.4378 42.96V42.54H94.0778C93.1845 42.54 92.4911 42.58 91.9978 42.66C91.5045 42.74 91.1511 42.88 90.9378 43.08C90.7245 43.28 90.6178 43.5533 90.6178 43.9C90.6178 44.3267 90.7645 44.68 91.0578 44.96C91.3511 45.2267 91.7245 45.36 92.1778 45.36ZM105.799 39.06L104.339 39.2C102.685 39.3733 101.859 40.2133 101.859 41.72V47H99.3586V37.22H101.739V38.94C102.245 37.7667 103.292 37.1267 104.879 37.02L105.639 36.96L105.799 39.06ZM116.26 32.9V47H113.78V45.42C113.486 45.9667 113.06 46.3933 112.5 46.7C111.953 47.0067 111.326 47.16 110.62 47.16C109.78 47.16 109.026 46.9467 108.36 46.52C107.706 46.0933 107.193 45.4933 106.82 44.72C106.46 43.9333 106.28 43.0333 106.28 42.02C106.28 41.0067 106.46 40.12 106.82 39.36C107.193 38.6 107.706 38.0133 108.36 37.6C109.013 37.1867 109.766 36.98 110.62 36.98C111.326 36.98 111.953 37.1267 112.5 37.42C113.046 37.7133 113.466 38.1267 113.76 38.66V32.9H116.26ZM111.28 45.22C112.08 45.22 112.693 44.9467 113.12 44.4C113.56 43.8533 113.78 43.0733 113.78 42.06C113.78 41.0467 113.56 40.2733 113.12 39.74C112.693 39.1933 112.086 38.92 111.3 38.92C110.5 38.92 109.88 39.1867 109.44 39.72C109 40.2533 108.78 41.02 108.78 42.02C108.78 43.0333 109 43.82 109.44 44.38C109.88 44.94 110.493 45.22 111.28 45.22ZM127.411 42.56H120.751C120.831 43.4667 121.105 44.14 121.571 44.58C122.038 45.02 122.705 45.24 123.571 45.24C124.651 45.24 125.638 44.8933 126.531 44.2L127.251 45.92C126.798 46.2933 126.225 46.5933 125.531 46.82C124.851 47.0467 124.165 47.16 123.471 47.16C121.871 47.16 120.605 46.7067 119.671 45.8C118.751 44.8933 118.291 43.6533 118.291 42.08C118.291 41.08 118.491 40.1933 118.891 39.42C119.291 38.6467 119.851 38.0467 120.571 37.62C121.305 37.1933 122.131 36.98 123.051 36.98C124.398 36.98 125.458 37.4133 126.231 38.28C127.018 39.1467 127.411 40.34 127.411 41.86V42.56ZM123.111 38.74C122.445 38.74 121.905 38.9533 121.491 39.38C121.091 39.8067 120.845 40.42 120.751 41.22H125.271C125.245 40.4067 125.045 39.7933 124.671 39.38C124.298 38.9533 123.778 38.74 123.111 38.74ZM135.136 36.98C136.31 36.98 137.183 37.3133 137.756 37.98C138.33 38.6467 138.616 39.6533 138.616 41V47H136.116V41.14C136.116 40.38 135.97 39.8267 135.676 39.48C135.396 39.1333 134.95 38.96 134.336 38.96C133.616 38.96 133.036 39.1867 132.596 39.64C132.17 40.0933 131.956 40.7 131.956 41.46V47H129.456V37.22H131.896V38.68C132.23 38.1333 132.676 37.7133 133.236 37.42C133.796 37.1267 134.43 36.98 135.136 36.98ZM141.155 47V37.22H143.655V47H141.155ZM141.015 32.68H143.775V35.14H141.015V32.68ZM151.914 36.98C153.087 36.98 153.96 37.3133 154.534 37.98C155.107 38.6467 155.394 39.6533 155.394 41V47H152.894V41.14C152.894 40.38 152.747 39.8267 152.454 39.48C152.174 39.1333 151.727 38.96 151.114 38.96C150.394 38.96 149.814 39.1867 149.374 39.64C148.947 40.0933 148.734 40.7 148.734 41.46V47H146.234V37.22H148.674V38.68C149.007 38.1333 149.454 37.7133 150.014 37.42C150.574 37.1267 151.207 36.98 151.914 36.98ZM167.453 37.22V46.1C167.453 47.6333 167.026 48.7933 166.173 49.58C165.333 50.3667 164.086 50.76 162.433 50.76C161.579 50.76 160.759 50.6467 159.973 50.42C159.186 50.2067 158.499 49.9 157.913 49.5L158.613 47.74C159.826 48.4733 161.079 48.84 162.373 48.84C164.106 48.84 164.973 47.9867 164.973 46.28V45C164.679 45.5467 164.253 45.9733 163.693 46.28C163.133 46.5733 162.493 46.72 161.773 46.72C160.919 46.72 160.159 46.52 159.493 46.12C158.839 45.7067 158.326 45.1333 157.953 44.4C157.579 43.6667 157.393 42.82 157.393 41.86C157.393 40.9 157.573 40.0533 157.933 39.32C158.306 38.5733 158.826 38 159.493 37.6C160.159 37.1867 160.919 36.98 161.773 36.98C162.493 36.98 163.133 37.1333 163.693 37.44C164.253 37.7333 164.679 38.1533 164.973 38.7V37.22H167.453ZM162.433 44.78C163.233 44.78 163.853 44.52 164.293 44C164.746 43.48 164.973 42.7667 164.973 41.86C164.973 40.94 164.746 40.22 164.293 39.7C163.853 39.18 163.233 38.92 162.433 38.92C161.646 38.92 161.026 39.18 160.573 39.7C160.119 40.22 159.893 40.94 159.893 41.86C159.893 42.7533 160.119 43.4667 160.573 44C161.026 44.52 161.646 44.78 162.433 44.78Z" fill="white"/>
<circle cx="26.5" cy="26.5" r="26.5" fill="#FECC1A"/>
<path d="M30.6 16.375H34.425L33.025 34H29.2L29.8 26.6H21.7L21.1 34H17.275L18.675 16.375H22.5L21.925 23.5H30.025L30.6 16.375Z" fill="#27292E"/>
</svg>
